
<svg xmlns="http://www.w3.org/2000/svg" version="1.1" xmlns:xlink="http://www.w3.org/1999/xlink" preserveAspectRatio="none" x="0px" y="0px" width="550px" height="400px" viewBox="0 0 550 400">
<defs>
<g id="Layer0_0_MEMBER_0_FILL">
<path fill="#000000" stroke="none" d="
M 209.9 143.65
Q 209.9 143.1 209.5 142.7
L 178.25 111.5
Q 177.9 111.1 177.35 111.1 176.8 111.1 176.4 111.5 176 111.9 176 112.45 176 113 176.4 113.4
L 207.6 144.6
Q 208 145 208.55 145 209.1 145 209.5 144.6 209.9 144.25 209.9 143.65 Z"/>
</g>

<g id="Layer0_0_MEMBER_1_FILL">
<path fill="#000000" stroke="none" d="
M 212.75 140.8
Q 212.75 140.2 212.4 139.85
L 181.15 108.6
Q 180.75 108.25 180.2 108.25 179.65 108.25 179.25 108.6 178.85 109 178.85 109.55 178.85 110.15 179.25 110.5
L 210.5 141.75
Q 210.9 142.15 211.45 142.15 212 142.15 212.4 141.75 212.75 141.35 212.75 140.8 Z"/>
</g>

<g id="Layer0_0_MEMBER_2_FILL">
<path fill="#000000" stroke="none" d="
M 215.6 137.95
Q 215.6 137.4 215.2 137
L 184 105.75
Q 183.6 105.4 183.05 105.4 182.5 105.4 182.1 105.75 181.7 106.15 181.7 106.7 181.7 107.3 182.1 107.65
L 213.3 138.9
Q 213.7 139.3 214.25 139.3 214.85 139.3 215.2 138.9 215.6 138.5 215.6 137.95 Z"/>
</g>

<g id="Layer0_0_MEMBER_3_FILL">
<path fill="#000000" stroke="none" d="
M 218.45 135.1
Q 218.45 134.55 218.05 134.15
L 186.85 102.95
Q 186.45 102.55 185.9 102.55 185.35 102.55 184.95 102.95 184.55 103.35 184.55 103.9 184.55 104.45 184.95 104.85
L 216.15 136.05
Q 216.55 136.45 217.1 136.45 217.7 136.45 218.05 136.05 218.45 135.65 218.45 135.1 Z"/>
</g>

<g id="Layer0_0_MEMBER_4_FILL">
<path fill="#000000" stroke="none" d="
M 185.9 102.55
Q 185.35 102.55 184.95 102.95
L 153.7 134.15
Q 153.35 134.55 153.35 135.1 153.35 135.65 153.7 136.05 154.1 136.45 154.65 136.45 155.25 136.45 155.6 136.05
L 186.85 104.85
Q 187.25 104.45 187.25 103.9 187.25 103.35 186.85 102.95 186.45 102.55 185.9 102.55 Z"/>
</g>

<g id="Layer0_0_MEMBER_5_FILL">
<path fill="#000000" stroke="none" d="
M 188.8 105.45
Q 188.25 105.45 187.85 105.8
L 156.6 137.05
Q 156.2 137.45 156.2 138 156.2 138.55 156.6 138.95 157 139.35 157.55 139.35 158.1 139.35 158.5 138.95
L 189.7 107.7
Q 190.1 107.3 190.1 106.75 190.1 106.2 189.7 105.8 189.35 105.45 188.8 105.45 Z"/>
</g>

<g id="Layer0_0_MEMBER_6_FILL">
<path fill="#000000" stroke="none" d="
M 191.6 108.25
Q 191.05 108.25 190.65 108.65
L 159.45 139.9
Q 159.05 140.3 159.05 140.85 159.05 141.4 159.45 141.75 159.85 142.15 160.4 142.15 160.95 142.15 161.35 141.75
L 192.55 110.55
Q 192.95 110.15 192.95 109.6 192.95 109.05 192.55 108.65 192.2 108.25 191.6 108.25 Z"/>
</g>

<g id="Layer0_0_MEMBER_7_FILL">
<path fill="#000000" stroke="none" d="
M 194.45 111.1
Q 193.9 111.1 193.5 111.5
L 162.3 142.7
Q 161.9 143.1 161.9 143.65 161.9 144.25 162.3 144.6 162.7 145 163.25 145 163.8 145 164.2 144.6
L 195.4 113.4
Q 195.8 113 195.8 112.45 195.8 111.9 195.4 111.5 195 111.1 194.45 111.1 Z"/>
</g>

<g id="Layer0_0_MEMBER_8_FILL">
<path fill="#000000" stroke="none" d="
M 208.55 125.2
Q 208 125.2 207.6 125.6
L 176.4 156.8
Q 176 157.2 176 157.75 176 158.3 176.4 158.7 176.8 159.1 177.35 159.1 177.9 159.1 178.25 158.7
L 209.5 127.5
Q 209.9 127.1 209.9 126.55 209.9 126 209.5 125.6 209.1 125.2 208.55 125.2 Z"/>
</g>

<g id="Layer0_0_MEMBER_9_FILL">
<path fill="#000000" stroke="none" d="
M 211.45 128.1
Q 210.9 128.1 210.5 128.45
L 179.25 159.7
Q 178.85 160.1 178.85 160.65 178.85 161.2 179.25 161.6 179.65 162 180.2 162 180.75 162 181.15 161.6
L 212.4 130.35
Q 212.8 130 212.8 129.4 212.8 128.85 212.4 128.45 212 128.1 211.45 128.1 Z"/>
</g>

<g id="Layer0_0_MEMBER_10_FILL">
<path fill="#000000" stroke="none" d="
M 214.25 130.95
Q 213.7 130.95 213.3 131.3
L 182.1 162.55
Q 181.7 162.95 181.7 163.5 181.7 164.05 182.1 164.45 182.5 164.8 183.05 164.8 183.6 164.8 184 164.45
L 215.2 133.2
Q 215.6 132.8 215.6 132.25 215.6 131.7 215.2 131.3 214.85 130.95 214.25 130.95 Z"/>
</g>

<g id="Layer0_0_MEMBER_11_FILL">
<path fill="#000000" stroke="none" d="
M 217.1 133.75
Q 216.55 133.75 216.15 134.15
L 184.95 165.4
Q 184.55 165.8 184.55 166.35 184.55 166.9 184.95 167.25 185.35 167.65 185.9 167.65 186.45 167.65 186.85 167.25
L 218.05 136.05
Q 218.45 135.65 218.45 135.1 218.45 134.55 218.05 134.15 217.65 133.75 217.1 133.75 Z"/>
</g>

<g id="Layer0_0_MEMBER_12_FILL">
<path fill="#000000" stroke="none" d="
M 163.25 125.2
Q 162.7 125.2 162.3 125.6 161.9 126 161.9 126.55 161.9 127.1 162.3 127.5
L 193.5 158.7
Q 193.9 159.1 194.45 159.1 195 159.1 195.4 158.7 195.8 158.3 195.8 157.75 195.8 157.2 195.4 156.8
L 164.2 125.6
Q 163.8 125.2 163.25 125.2 Z"/>
</g>

<g id="Layer0_0_MEMBER_13_FILL">
<path fill="#000000" stroke="none" d="
M 192.9 160.65
Q 192.9 160.1 192.5 159.7
L 161.3 128.45
Q 160.9 128.1 160.35 128.1 159.8 128.1 159.4 128.45 159 128.85 159 129.4 159 130 159.4 130.35
L 190.65 161.6
Q 191.05 162 191.6 162 192.15 162 192.5 161.6 192.9 161.2 192.9 160.65 Z"/>
</g>

<g id="Layer0_0_MEMBER_14_FILL">
<path fill="#000000" stroke="none" d="
M 190.1 163.5
Q 190.1 162.95 189.7 162.55
L 158.45 131.3
Q 158.05 130.95 157.5 130.95 156.95 130.95 156.55 131.3 156.2 131.7 156.2 132.25 156.2 132.8 156.55 133.2
L 187.8 164.45
Q 188.2 164.85 188.75 164.85 189.3 164.85 189.7 164.45 190.1 164.05 190.1 163.5 Z"/>
</g>

<g id="Layer0_0_MEMBER_15_FILL">
<path fill="#000000" stroke="none" d="
M 187.25 166.35
Q 187.25 165.8 186.85 165.4
L 155.6 134.15
Q 155.25 133.75 154.65 133.75 154.1 133.75 153.7 134.15 153.35 134.55 153.35 135.1 153.35 135.65 153.7 136.05
L 184.95 167.25
Q 185.35 167.65 185.9 167.65 186.45 167.65 186.85 167.25 187.25 166.9 187.25 166.35 Z"/>
</g>
</defs>

<g transform="matrix( 2.935302734375, 0, 0, 2.935302734375, -272.8,-184.5) ">
<use xlink:href="#Layer0_0_MEMBER_0_FILL"/>
</g>

<g transform="matrix( 2.935302734375, 0, 0, 2.935302734375, -272.8,-184.5) ">
<use xlink:href="#Layer0_0_MEMBER_1_FILL"/>
</g>

<g transform="matrix( 2.935302734375, 0, 0, 2.935302734375, -272.8,-184.5) ">
<use xlink:href="#Layer0_0_MEMBER_2_FILL"/>
</g>

<g transform="matrix( 2.935302734375, 0, 0, 2.935302734375, -272.8,-184.5) ">
<use xlink:href="#Layer0_0_MEMBER_3_FILL"/>
</g>

<g transform="matrix( 2.935302734375, 0, 0, 2.935302734375, -272.8,-184.5) ">
<use xlink:href="#Layer0_0_MEMBER_4_FILL"/>
</g>

<g transform="matrix( 2.935302734375, 0, 0, 2.935302734375, -272.8,-184.5) ">
<use xlink:href="#Layer0_0_MEMBER_5_FILL"/>
</g>

<g transform="matrix( 2.935302734375, 0, 0, 2.935302734375, -272.8,-184.5) ">
<use xlink:href="#Layer0_0_MEMBER_6_FILL"/>
</g>

<g transform="matrix( 2.935302734375, 0, 0, 2.935302734375, -272.8,-184.5) ">
<use xlink:href="#Layer0_0_MEMBER_7_FILL"/>
</g>

<g transform="matrix( 2.935302734375, 0, 0, 2.935302734375, -272.8,-184.5) ">
<use xlink:href="#Layer0_0_MEMBER_8_FILL"/>
</g>

<g transform="matrix( 2.935302734375, 0, 0, 2.935302734375, -272.8,-184.5) ">
<use xlink:href="#Layer0_0_MEMBER_9_FILL"/>
</g>

<g transform="matrix( 2.935302734375, 0, 0, 2.935302734375, -272.8,-184.5) ">
<use xlink:href="#Layer0_0_MEMBER_10_FILL"/>
</g>

<g transform="matrix( 2.935302734375, 0, 0, 2.935302734375, -272.8,-184.5) ">
<use xlink:href="#Layer0_0_MEMBER_11_FILL"/>
</g>

<g transform="matrix( 2.935302734375, 0, 0, 2.935302734375, -272.8,-184.5) ">
<use xlink:href="#Layer0_0_MEMBER_12_FILL"/>
</g>

<g transform="matrix( 2.935302734375, 0, 0, 2.935302734375, -272.8,-184.5) ">
<use xlink:href="#Layer0_0_MEMBER_13_FILL"/>
</g>

<g transform="matrix( 2.935302734375, 0, 0, 2.935302734375, -272.8,-184.5) ">
<use xlink:href="#Layer0_0_MEMBER_14_FILL"/>
</g>

<g transform="matrix( 2.935302734375, 0, 0, 2.935302734375, -272.8,-184.5) ">
<use xlink:href="#Layer0_0_MEMBER_15_FILL"/>
</g>
</svg>
